<svg width="40" height="41" viewBox="0 0 40 41" fill="none" xmlns="http://www.w3.org/2000/svg">
<rect y="0.549988" width="40" height="40" rx="8" fill="#4649E5"/>
<path d="M18.6346 10.55H25.7235L13.1525 22.4167C13.1052 22.55 13.0485 22.8522 13.1998 22.9944C13.351 23.1367 13.7039 23.0537 13.8614 22.9944C16.9805 20.15 23.266 14.3722 23.266 14.3722C23.266 14.3722 23.6021 14.141 23.8331 14.0167C25.0181 13.3788 25.9323 13.296 27.283 13.4833C28.9865 13.7195 30.0875 14.2828 31.0638 15.6167C31.9627 16.8449 32.1326 17.8731 31.9144 19.35C31.7427 20.5125 31.0638 21.6463 30.6384 22.1055C30.2131 22.5648 21.5647 30.55 21.5647 30.55H14.4285L26.905 18.8611C26.968 18.6685 26.9937 18.3477 26.7632 18.1944C26.5351 18.0428 26.1803 18.2241 26.0543 18.2833C23.2975 20.9352 17.7461 26.2478 17.5949 26.2833C17.4058 26.3278 17.3113 26.55 15.9408 27.35C14.8444 27.99 12.932 27.8537 12.1128 27.7055C11.3882 27.4537 10.0773 26.9763 9.22997 26.0167C8.22697 24.8807 8.04849 23.8389 8.00123 22.4167C7.96343 21.2789 8.80464 19.8981 9.22997 19.35L18.6346 10.55Z" fill="white"/>
</svg>
