<svg width="22" height="20" viewBox="0 0 22 20" fill="none" xmlns="http://www.w3.org/2000/svg">
<path d="M11 0.3125C5.65828 0.3125 1.3125 4.65828 1.3125 10C1.3125 15.3417 5.65828 19.6875 11 19.6875C16.3417 19.6875 20.6875 15.3417 20.6875 10C20.6875 4.65828 16.3417 0.3125 11 0.3125ZM17.4051 4.77992C18.5575 6.18797 19.2554 7.98137 19.2736 9.93441C19.0008 9.87672 16.2651 9.32184 13.5118 9.66809C13.2871 9.11961 13.0751 8.63711 12.7846 8.04254C15.844 6.79344 17.2306 5.0159 17.4051 4.77992ZM16.4852 3.82305C16.3364 4.03504 15.0908 5.70922 12.1484 6.81207C10.7925 4.32082 9.28965 2.27426 9.06094 1.96801C11.685 1.33547 14.4502 2.01762 16.4852 3.82305ZM7.48207 2.52422C7.70023 2.8234 9.17887 4.8725 10.5499 7.30973C6.67934 8.33758 3.27023 8.32277 2.90016 8.31789C3.43672 5.7502 5.16711 3.61613 7.48207 2.52422ZM2.72539 10.0126C2.72539 9.92801 2.72707 9.84379 2.72961 9.75977C3.09164 9.76719 7.10148 9.81887 11.2338 8.58219C11.4706 9.04578 11.6969 9.51637 11.9046 9.98645C8.91246 10.8292 6.19391 13.2492 4.85262 15.5453C3.53102 14.0783 2.72539 12.1379 2.72539 10.0126ZM5.92098 16.5405C6.78531 14.7736 9.13105 12.4927 12.467 11.3547C13.6287 14.3736 14.1092 16.9036 14.2322 17.6296C11.5716 18.7629 8.37227 18.452 5.92098 16.5405ZM15.6233 16.8721C15.5385 16.3687 15.0981 13.9464 14.0158 10.9723C16.6088 10.5573 18.8869 11.2367 19.17 11.3261C18.8012 13.6284 17.4796 15.6168 15.6233 16.8721Z" fill="#171618"/>
</svg>
