<svg width="160" height="25" viewBox="0 0 160 25" fill="none" xmlns="http://www.w3.org/2000/svg">
<path d="M13.2932 0H22.1543L6.44063 14.8333C6.38156 15 6.31067 15.3778 6.49971 15.5556C6.68875 15.7333 7.12983 15.6296 7.32675 15.5556C11.2256 12 19.0825 4.77778 19.0825 4.77778C19.0825 4.77778 19.5026 4.48876 19.7914 4.33333C21.2726 3.53604 22.4153 3.43252 24.1038 3.66667C26.2331 3.96194 27.6094 4.66601 28.8297 6.33333C29.9534 7.86862 30.1658 9.15392 29.893 11C29.6784 12.4532 28.8297 13.8704 28.298 14.4444C27.7664 15.0185 16.9558 25 16.9558 25H8.03563L23.6312 10.3889C23.71 10.1481 23.7421 9.74714 23.454 9.55556C23.1689 9.36603 22.7254 9.59259 22.5679 9.66667C19.1219 12.9815 12.1826 19.6222 11.9936 19.6667C11.7573 19.7222 11.6392 20 9.92601 21C8.55549 21.8 6.16495 21.6296 5.141 21.4444C4.2352 21.1296 2.59665 20.5329 1.53747 19.3333C0.283714 17.9134 0.0606151 16.6111 0.00154099 14.8333C-0.0457183 13.4111 1.0058 11.6852 1.53747 11L13.2932 0Z" fill="black"/>
<path d="M35.8525 16.3303C39.8456 16.5489 42.5489 16.6582 43.9625 16.6582C44.2977 16.6582 44.56 16.5635 44.7494 16.3741C44.9535 16.17 45.0555 15.9004 45.0555 15.5653V13.5979H40.0277C38.4976 13.5979 37.3827 13.2554 36.6832 12.5705C35.9983 11.871 35.6558 10.7561 35.6558 9.22593V8.57014C35.6558 7.03996 35.9983 5.9324 36.6832 5.24746C37.3827 4.54795 38.4976 4.19819 40.0277 4.19819H47.7005V7.25856H40.9021C40.0277 7.25856 39.5905 7.69575 39.5905 8.57014V9.00733C39.5905 9.88172 40.0277 10.3189 40.9021 10.3189H44.8369C46.265 10.3189 47.3143 10.6541 47.9847 11.3245C48.655 11.9948 48.9902 13.0441 48.9902 14.4723V15.5653C48.9902 16.9934 48.655 18.0427 47.9847 18.7131C47.3143 19.3834 46.265 19.7186 44.8369 19.7186C44.0936 19.7186 43.3067 19.704 42.476 19.6749L40.4649 19.5874C38.9785 19.5146 37.441 19.4126 35.8525 19.2814V16.3303ZM56.0929 16.5489C56.8653 16.5489 57.7397 16.4032 58.7161 16.1117V7.91435H62.5415V19.5H59.1533L58.9347 18.407C58.2497 18.8588 57.543 19.194 56.8143 19.4126C56.1002 19.6166 55.4954 19.7186 54.9999 19.7186H54.0162C53.0253 19.7186 52.231 19.4198 51.6335 18.8223C51.036 18.2248 50.7373 17.4306 50.7373 16.4396V7.91435H54.5627V15.7838C54.5627 16.0024 54.6356 16.1846 54.7813 16.3303C54.9271 16.4761 55.1092 16.5489 55.3278 16.5489H56.0929ZM72.48 11.4119C72.48 11.1933 72.4072 11.0111 72.2614 10.8654C72.1157 10.7197 71.9335 10.6468 71.7149 10.6468H71.1684C70.5564 10.6468 70.0245 10.676 69.5727 10.7343C69.1355 10.7925 68.793 10.8363 68.5453 10.8654V16.5489H71.6056C72.1886 16.5489 72.48 16.2575 72.48 15.6745V11.4119ZM68.5453 8.13294C69.9589 7.84148 71.1976 7.69575 72.2614 7.69575H73.0265C74.0175 7.69575 74.8117 7.9945 75.4092 8.592C76.0067 9.1895 76.3055 9.98373 76.3055 10.9747V16.0024C76.3055 17.0954 75.9922 17.9552 75.3655 18.5819C74.7534 19.194 73.9009 19.5 72.8079 19.5H64.7198V4.19819H68.5453V8.13294ZM78.035 16.3303C82.028 16.5489 84.7313 16.6582 86.1449 16.6582C86.4801 16.6582 86.7424 16.5635 86.9319 16.3741C87.1359 16.17 87.2379 15.9004 87.2379 15.5653V13.5979H82.2102C80.68 13.5979 79.5651 13.2554 78.8656 12.5705C78.1807 11.871 77.8382 10.7561 77.8382 9.22593V8.57014C77.8382 7.03996 78.1807 5.9324 78.8656 5.24746C79.5651 4.54795 80.68 4.19819 82.2102 4.19819H89.8829V7.25856H83.0846C82.2102 7.25856 81.773 7.69575 81.773 8.57014V9.00733C81.773 9.88172 82.2102 10.3189 83.0846 10.3189H87.0193C88.4475 10.3189 89.4967 10.6541 90.1671 11.3245C90.8375 11.9948 91.1727 13.0441 91.1727 14.4723V15.5653C91.1727 16.9934 90.8375 18.0427 90.1671 18.7131C89.4967 19.3834 88.4475 19.7186 87.0193 19.7186C86.2761 19.7186 85.4891 19.704 84.6585 19.6749L82.6474 19.5874C81.1609 19.5146 79.6234 19.4126 78.035 19.2814V16.3303ZM103.194 19.2814C100.469 19.5729 98.064 19.7186 95.9801 19.7186C94.9891 19.7186 94.1949 19.4198 93.5974 18.8223C92.9999 18.2248 92.7011 17.4306 92.7011 16.4396V11.4119C92.7011 10.3189 93.0072 9.46639 93.6192 8.85432C94.2459 8.22767 95.1057 7.91435 96.1987 7.91435H103.194V10.8654H97.401C96.818 10.8654 96.5266 11.1569 96.5266 11.7398V16.0024C96.5266 16.221 96.5994 16.4032 96.7452 16.5489C96.8909 16.6947 97.0731 16.7675 97.2917 16.7675C98.6032 16.7675 100.571 16.6582 103.194 16.4396V19.2814ZM111.606 11.084C110.687 11.084 109.74 11.3026 108.764 11.7398V19.5H104.938V7.91435H108.327L108.545 9.33523C109.798 8.24224 111.11 7.69575 112.48 7.69575H113.464V11.084H111.606ZM119.802 8.35154V19.5H115.977V11.3026H114.337V8.35154H119.802ZM115.977 3.9796H119.802V7.03996H115.977V3.9796ZM129.755 11.4119C129.755 11.1933 129.682 11.0111 129.536 10.8654C129.391 10.7197 129.209 10.6468 128.99 10.6468H128.443C127.831 10.6468 127.299 10.676 126.848 10.7343C126.411 10.7925 126.068 10.8363 125.82 10.8654V16.5489H128.881C129.464 16.5489 129.755 16.2575 129.755 15.6745V11.4119ZM125.82 8.13294C127.234 7.84148 128.473 7.69575 129.536 7.69575H130.302C131.293 7.69575 132.087 7.9945 132.684 8.592C133.282 9.1895 133.581 9.98373 133.581 10.9747V16.0024C133.581 17.0954 133.267 17.9552 132.641 18.5819C132.028 19.194 131.176 19.5 130.083 19.5H121.995V4.19819H125.82V8.13294ZM140.032 10.4282C139.449 10.4282 139.157 10.7197 139.157 11.3026V12.5049H142.873V11.3026C142.873 10.7197 142.582 10.4282 141.999 10.4282H140.032ZM146.262 19.2814C143.449 19.5729 140.899 19.7186 138.611 19.7186C137.62 19.7186 136.826 19.4198 136.228 18.8223C135.631 18.2248 135.332 17.4306 135.332 16.4396V11.1933C135.332 10.1003 135.638 9.24779 136.25 8.63572C136.877 8.00907 137.736 7.69575 138.829 7.69575H143.201C144.294 7.69575 145.147 8.00907 145.759 8.63572C146.386 9.24779 146.699 10.1003 146.699 11.1933V15.2374H139.157V16.1117C139.157 16.3303 139.23 16.5125 139.376 16.6582C139.522 16.804 139.704 16.8768 139.922 16.8768C141.365 16.8768 143.478 16.7675 146.262 16.5489V19.2814ZM148.221 16.221H152.155V19.5H148.221V16.221Z" fill="black"/>
</svg>
