<svg width="91" height="49" viewBox="0 0 91 49" fill="none" xmlns="http://www.w3.org/2000/svg">
<g clip-path="url(#clip0_1_195)">
<mask id="mask0_1_195" style="mask-type:luminance" maskUnits="userSpaceOnUse" x="0" y="0" width="91" height="48">
<path d="M90.5 0.403564H0.5V47.8761H90.5V0.403564Z" fill="white"/>
</mask>
<g mask="url(#mask0_1_195)">
<mask id="mask1_1_195" style="mask-type:luminance" maskUnits="userSpaceOnUse" x="0" y="0" width="91" height="48">
<path d="M90.5 0.403564H0.5V47.8761H90.5V0.403564Z" fill="white"/>
</mask>
<g mask="url(#mask1_1_195)">
<path fill-rule="evenodd" clip-rule="evenodd" d="M52.1587 3.48646C52.6379 3.30722 53.1711 3.34214 53.6229 3.58235L70.2595 12.4282C71.1305 12.8913 71.4611 13.9728 70.998 14.8438L70.1514 16.4342L83.833 15.2375C84.7666 15.1558 85.5951 15.8079 85.7494 16.7158L85.768 16.8613L87.4109 35.6381C87.4551 36.1441 87.2819 36.6449 86.9346 37.0154L86.0105 38.0011C85.7106 38.321 85.3034 38.5195 84.8665 38.5586L66.0165 40.2446L65.9954 40.2463C65.0119 40.3227 64.1528 39.5872 64.0765 38.6037L63.349 29.2281L62.1491 31.4863C61.9371 31.8848 61.5832 32.1865 61.1609 32.3339L60.9995 32.3819L59.6879 32.7052C59.2619 32.8103 58.8123 32.7549 58.4246 32.5496L50.5262 28.3676L50.3564 28.2776L43.0792 43.4906C42.9169 43.8299 42.6523 44.108 42.3245 44.2871L42.1803 44.3578L40.9286 44.9021C40.4594 45.1062 39.9252 45.0992 39.4614 44.8829L22.3847 36.92C21.4906 36.503 21.1038 35.4403 21.5208 34.5463L24.2119 28.7731L10.5076 32.4744C9.55518 32.7315 8.57467 32.168 8.3175 31.2157L8.31212 31.1952L3.63451 13.0222C3.52735 12.6058 3.57394 12.1648 3.76572 11.7801L4.37465 10.5586C4.60294 10.1006 5.01666 9.76253 5.51093 9.63009L23.7109 4.75341C24.6639 4.49808 25.6433 5.06355 25.8985 6.0164L29.1559 18.1719L29.4866 17.4636C29.6774 17.0544 30.0149 16.7347 30.4289 16.5654L30.5876 16.509L31.8807 16.1173C32.3004 15.9902 32.7523 16.022 33.1502 16.2066L41.5858 20.1203L49.9371 4.78347C50.117 4.45311 50.3958 4.18923 50.7325 4.02753L50.8802 3.9646L52.1587 3.48646Z" stroke="white" strokeWidth="4.48615"/>
<path fill-rule="evenodd" clip-rule="evenodd" d="M52.1587 3.48646C52.6379 3.30722 53.1711 3.34214 53.6229 3.58235L70.2595 12.4282C71.1305 12.8913 71.4611 13.9728 70.998 14.8438L70.1514 16.4342L83.833 15.2375C84.7666 15.1558 85.5951 15.8079 85.7494 16.7158L85.768 16.8613L87.4109 35.6381C87.4551 36.1441 87.2819 36.6449 86.9346 37.0154L86.0105 38.0011C85.7106 38.321 85.3034 38.5195 84.8665 38.5586L66.0165 40.2446L65.9954 40.2463C65.0119 40.3227 64.1528 39.5872 64.0765 38.6037L63.349 29.2281L62.1491 31.4863C61.9371 31.8848 61.5832 32.1865 61.1609 32.3339L60.9995 32.3819L59.6879 32.7052C59.2619 32.8103 58.8123 32.7549 58.4246 32.5496L50.5262 28.3676L50.3564 28.2776L43.0792 43.4906C42.9169 43.8299 42.6523 44.108 42.3245 44.2871L42.1803 44.3578L40.9286 44.9021C40.4594 45.1062 39.9252 45.0992 39.4614 44.8829L22.3847 36.92C21.4906 36.503 21.1038 35.4403 21.5208 34.5463L24.2119 28.7731L10.5076 32.4744C9.55518 32.7315 8.57467 32.168 8.3175 31.2157L8.31212 31.1952L3.63451 13.0222C3.52735 12.6058 3.57394 12.1648 3.76572 11.7801L4.37465 10.5586C4.60294 10.1006 5.01666 9.76253 5.51093 9.63009L23.7109 4.75341C24.6639 4.49808 25.6433 5.06355 25.8985 6.0164L29.1559 18.1719L29.4866 17.4636C29.6774 17.0544 30.0149 16.7347 30.4289 16.5654L30.5876 16.509L31.8807 16.1173C32.3004 15.9902 32.7523 16.022 33.1502 16.2066L41.5858 20.1203L49.9371 4.78347C50.117 4.45311 50.3958 4.18923 50.7325 4.02753L50.8802 3.9646L52.1587 3.48646Z" stroke="white" strokeWidth="1.99385"/>
<path fill-rule="evenodd" clip-rule="evenodd" d="M53.4694 3.5099L53.6229 3.58235L70.2595 12.4282C71.0847 12.8669 71.4248 13.8607 71.0646 14.7046L70.998 14.8438L70.1514 16.4342L83.833 15.2375C84.7666 15.1558 85.5951 15.8079 85.7494 16.7158L85.768 16.8613L87.4109 35.6381C87.4501 36.0879 87.3177 36.5336 87.0438 36.8873L86.9346 37.0154L86.0105 38.0011C85.748 38.2811 85.4036 38.468 85.0288 38.5365L84.8665 38.5586L66.0165 40.2447L65.9954 40.2463C65.0611 40.3188 64.239 39.6587 64.0938 38.7493L64.0765 38.6037L63.349 29.2281L62.1491 31.4863C61.9371 31.8848 61.5832 32.1865 61.1609 32.3339L60.9995 32.3819L59.6879 32.7052C59.3152 32.7971 58.9244 32.7661 58.5728 32.6195L58.4246 32.5496L50.5262 28.3676L50.3564 28.2776L43.0792 43.4906C42.9169 43.8299 42.6523 44.108 42.3245 44.2871L42.1803 44.3578L40.9286 44.9021C40.5116 45.0835 40.0431 45.0981 39.6184 44.9473L39.4614 44.8829L22.3847 36.92C21.5377 36.525 21.1459 35.5504 21.4615 34.6888L21.5208 34.5463L24.2119 28.7731L10.5076 32.4744C9.55518 32.7315 8.57467 32.168 8.3175 31.2157L8.31212 31.1952L3.63451 13.0222C3.52735 12.6059 3.57394 12.1649 3.76572 11.7801L4.37465 10.5586C4.60294 10.1006 5.01666 9.76253 5.51093 9.63009L23.7109 4.75341C24.6639 4.49809 25.6433 5.06355 25.8985 6.01641L29.1559 18.1719L29.4866 17.4636C29.6774 17.0544 30.0149 16.7347 30.4289 16.5654L30.5876 16.509L31.8807 16.1173C32.248 16.0062 32.6398 16.0166 32.9985 16.1445L33.1502 16.2066L41.5858 20.1203L49.9371 4.78348C50.117 4.45312 50.3958 4.18923 50.7325 4.02753L50.8802 3.9646L52.1587 3.48646C52.5847 3.32714 53.0533 3.33702 53.4694 3.5099ZM31.8477 20.2461C31.3505 20.0141 30.7592 20.2293 30.5273 20.7267L24.2718 34.1418C24.0399 34.6391 24.255 35.2303 24.7524 35.4622L38.1674 41.7178C38.6648 41.9497 39.2559 41.7345 39.4878 41.2371L45.7434 27.8221C45.9754 27.3247 45.7602 26.7336 45.2629 26.5017L31.8477 20.2461ZM82.5114 17.6838L68.852 18.8789L67.0556 22.2564L68.1527 34.7959C68.2005 35.3426 68.6825 35.7469 69.2291 35.6992L83.9747 34.4091C84.5214 34.3612 84.9258 33.8793 84.8779 33.3327L83.5878 18.5871C83.5401 18.0404 83.0581 17.6361 82.5114 17.6838ZM53.4056 7.22179L46.4566 20.2912C46.199 20.7757 46.3828 21.3773 46.8674 21.6349L59.9367 28.5839C60.4213 28.8416 61.0229 28.6577 61.2805 28.1732L68.2296 15.1038C68.4871 14.6193 68.3033 14.0177 67.8188 13.76L54.7494 6.81097C54.2649 6.55334 53.6632 6.73728 53.4056 7.22179ZM24.0512 8.09461C23.9091 7.56456 23.3643 7.25001 22.8343 7.39203L8.53671 11.223C8.00666 11.3651 7.69209 11.9099 7.83413 12.44L11.6652 26.7375C11.8072 27.2675 12.352 27.5821 12.8821 27.4401L26.5377 23.7811L27.6271 21.4404L24.0512 8.09461Z" fill="white"/>
<path fill-rule="evenodd" clip-rule="evenodd" d="M70.5312 21.212L79.9486 20.3879L80.1777 23.0146L74.3049 23.5277L74.475 25.4645L79.6298 25.0081L79.8498 27.4966L74.6927 27.9467L74.8769 30.0557L80.9763 29.5218L81.2062 32.1491L71.559 32.9927L70.5312 21.212Z" fill="white"/>
<path fill-rule="evenodd" clip-rule="evenodd" d="M18.794 24.0576C20.4362 23.6176 21.5715 22.8702 22.1999 21.8155C22.8283 20.7608 22.921 19.4065 22.4778 17.7526L20.4789 10.2927L12.3086 12.4819L13.136 15.57L17.2645 14.4638L18.5011 19.0785C18.6343 19.5758 18.6223 19.9819 18.465 20.2968C18.3076 20.6116 18.015 20.8264 17.5871 20.941C17.2518 21.0309 16.9017 21.0194 16.5367 20.9064C16.1718 20.7935 15.7732 20.578 15.3409 20.2599L13.8351 23.4525C14.4905 23.9092 15.2437 24.1877 16.0948 24.288C16.9461 24.3885 17.8458 24.3117 18.794 24.0576Z" fill="white"/>
<path fill-rule="evenodd" clip-rule="evenodd" d="M32.484 36.728C34.1399 37.5001 35.6385 37.6562 36.98 37.1962C38.3215 36.7362 39.3674 35.7016 40.1176 34.0926L42.8777 28.1737L39.2984 26.5047L36.5886 32.3159C36.2206 33.105 35.8116 33.6131 35.3615 33.8399C34.9113 34.0666 34.4189 34.0554 33.884 33.806C33.3491 33.5566 33.024 33.1866 32.9084 32.696C32.7928 32.2054 32.919 31.5655 33.287 30.7763L35.9968 24.9652L32.3559 23.2673L29.5959 29.1862C28.8456 30.7952 28.7253 32.2614 29.2353 33.5847C29.7451 34.908 30.8281 35.9558 32.484 36.728Z" fill="white"/>
<path fill-rule="evenodd" clip-rule="evenodd" d="M49.6836 20.0386L52.6647 21.6261L55.4482 16.3898L57.1076 23.9877L59.6823 25.3578L65.0003 15.3561L62.0166 13.7706L59.2331 19.0069L57.5733 11.4063L54.9979 10.0378L49.6836 20.0386Z" fill="white"/>
</g>
</g>
</g>
<defs>
<clipPath id="clip0_1_195">
<rect width="91" height="48" fill="white" transform="translate(0 0.139893)"/>
</clipPath>
</defs>
</svg>
