<svg width="18" height="18" viewBox="0 0 18 18" fill="none" xmlns="http://www.w3.org/2000/svg">
<g clip-path="url(#clip0_1_326)">
<path d="M17.4186 17.2626L17.4226 17.2619V11.1975C17.4226 8.23068 16.7932 5.94531 13.3751 5.94531C11.7319 5.94531 10.6292 6.86029 10.179 7.72772H10.1315V6.22229H6.89062V17.2619H10.2653V11.7955C10.2653 10.3562 10.5342 8.96446 12.2907 8.96446C14.0215 8.96446 14.0473 10.607 14.0473 11.8878V17.2626H17.4186Z" fill="#171618"/>
<path d="M1.39258 6.21875H4.7713V17.2584H1.39258V6.21875Z" fill="#171618"/>
<path d="M3.08189 0.726562C2.00159 0.726562 1.125 1.61605 1.125 2.71223C1.125 3.8084 2.00159 4.71649 3.08189 4.71649C4.16218 4.71649 5.03877 3.8084 5.03877 2.71223C5.03809 1.61605 4.1615 0.726562 3.08189 0.726562Z" fill="#171618"/>
</g>
<defs>
<clipPath id="clip0_1_326">
<rect width="17" height="17" fill="white" transform="translate(0.5 0.5)"/>
</clipPath>
</defs>
</svg>
