<svg width="152" height="26" viewBox="0 0 152 26" fill="none" xmlns="http://www.w3.org/2000/svg">
<path d="M13.2932 0.5H22.1543L6.44063 15.3333C6.38156 15.5 6.31067 15.8778 6.49971 16.0556C6.68875 16.2333 7.12983 16.1296 7.32675 16.0556C11.2256 12.5 19.0825 5.27778 19.0825 5.27778C19.0825 5.27778 19.5026 4.98876 19.7914 4.83333C21.2726 4.03604 22.4153 3.93252 24.1038 4.16667C26.2331 4.46194 27.6094 5.16601 28.8297 6.83333C29.9534 8.36862 30.1658 9.65392 29.893 11.5C29.6784 12.9532 28.8297 14.3704 28.298 14.9444C27.7664 15.5185 16.9558 25.5 16.9558 25.5H8.03563L23.6312 10.8889C23.71 10.6481 23.7421 10.2471 23.454 10.0556C23.1689 9.86603 22.7254 10.0926 22.5679 10.1667C19.1219 13.4815 12.1826 20.1222 11.9936 20.1667C11.7573 20.2222 11.6392 20.5 9.92601 21.5C8.55549 22.3 6.16495 22.1296 5.141 21.9444C4.2352 21.6296 2.59665 21.0329 1.53747 19.8333C0.283714 18.4134 0.0606151 17.1111 0.00154099 15.3333C-0.0457183 13.9111 1.0058 12.1852 1.53747 11.5L13.2932 0.5Z" fill="white"/>
<path d="M35.1967 17.4814C39.1898 17.7 41.8931 17.8093 43.3067 17.8093C43.6419 17.8093 43.9042 17.7145 44.0936 17.5251C44.2977 17.3211 44.3997 17.0514 44.3997 16.7163V14.7489H39.3719C37.8418 14.7489 36.7269 14.4064 36.0274 13.7215C35.3425 13.022 35 11.9071 35 10.3769V9.72116C35 8.19098 35.3425 7.08342 36.0274 6.39848C36.7269 5.69897 37.8418 5.34921 39.3719 5.34921H47.0447V8.40957H40.2463C39.3719 8.40957 38.9347 8.84677 38.9347 9.72116V10.1584C38.9347 11.0327 39.3719 11.4699 40.2463 11.4699H44.1811C45.6093 11.4699 46.6585 11.8051 47.3289 12.4755C47.9992 13.1458 48.3344 14.1951 48.3344 15.6233V16.7163C48.3344 18.1444 47.9992 19.1937 47.3289 19.8641C46.6585 20.5344 45.6093 20.8696 44.1811 20.8696C43.4379 20.8696 42.6509 20.855 41.8202 20.8259L39.8091 20.7385C38.3227 20.6656 36.7852 20.5636 35.1967 20.4324V17.4814Z" fill="white"/>
<path d="M55.4371 17.7C56.2095 17.7 57.0839 17.5542 58.0603 17.2628V9.06537H61.8857V20.651H58.4975L58.2789 19.558C57.594 20.0098 56.8872 20.345 56.1585 20.5636C55.4444 20.7676 54.8396 20.8696 54.3441 20.8696H53.3605C52.3695 20.8696 51.5752 20.5709 50.9777 19.9734C50.3802 19.3759 50.0815 18.5816 50.0815 17.5907V9.06537H53.9069V16.9349C53.9069 17.1535 53.9798 17.3356 54.1255 17.4814C54.2713 17.6271 54.4534 17.7 54.672 17.7H55.4371Z" fill="white"/>
<path d="M71.8242 12.5629C71.8242 12.3443 71.7514 12.1622 71.6056 12.0164C71.4599 11.8707 71.2777 11.7978 71.0591 11.7978H70.5127C69.9006 11.7978 69.3687 11.827 68.9169 11.8853C68.4797 11.9436 68.1372 11.9873 67.8895 12.0164V17.7H70.9498C71.5328 17.7 71.8242 17.4085 71.8242 16.8256V12.5629ZM67.8895 9.28396C69.3031 8.9925 70.5418 8.84677 71.6056 8.84677H72.3707C73.3617 8.84677 74.1559 9.14552 74.7534 9.74302C75.3509 10.3405 75.6497 11.1348 75.6497 12.1257V17.1535C75.6497 18.2464 75.3364 19.1063 74.7097 19.7329C74.0976 20.345 73.2451 20.651 72.1521 20.651H64.064V5.34921H67.8895V9.28396Z" fill="white"/>
<path d="M77.3792 17.4814C81.3722 17.7 84.0755 17.8093 85.4891 17.8093C85.8243 17.8093 86.0866 17.7145 86.2761 17.5251C86.4801 17.3211 86.5821 17.0514 86.5821 16.7163V14.7489H81.5544C80.0242 14.7489 78.9094 14.4064 78.2098 13.7215C77.5249 13.022 77.1824 11.9071 77.1824 10.3769V9.72116C77.1824 8.19098 77.5249 7.08342 78.2098 6.39848C78.9094 5.69897 80.0242 5.34921 81.5544 5.34921H89.2271V8.40957H82.4288C81.5544 8.40957 81.1172 8.84677 81.1172 9.72116V10.1584C81.1172 11.0327 81.5544 11.4699 82.4288 11.4699H86.3635C87.7917 11.4699 88.841 11.8051 89.5113 12.4755C90.1817 13.1458 90.5169 14.1951 90.5169 15.6233V16.7163C90.5169 18.1444 90.1817 19.1937 89.5113 19.8641C88.841 20.5344 87.7917 20.8696 86.3635 20.8696C85.6203 20.8696 84.8333 20.855 84.0027 20.8259L81.9916 20.7385C80.5051 20.6656 78.9676 20.5636 77.3792 20.4324V17.4814Z" fill="white"/>
<path d="M102.538 20.4324C99.8128 20.7239 97.4083 20.8696 95.3243 20.8696C94.3333 20.8696 93.5391 20.5709 92.9416 19.9734C92.3441 19.3759 92.0453 18.5816 92.0453 17.5907V12.5629C92.0453 11.4699 92.3514 10.6174 92.9634 10.0053C93.5901 9.37869 94.4499 9.06537 95.5429 9.06537H102.538V12.0164H96.7452C96.1622 12.0164 95.8708 12.3079 95.8708 12.8908V17.1535C95.8708 17.3721 95.9436 17.5542 96.0894 17.7C96.2351 17.8457 96.4173 17.9186 96.6359 17.9186C97.9475 17.9186 99.9148 17.8093 102.538 17.5907V20.4324Z" fill="white"/>
<path d="M110.95 12.235C110.032 12.235 109.084 12.4536 108.108 12.8908V20.651H104.283V9.06537H107.671L107.889 10.4862C109.143 9.39326 110.454 8.84677 111.824 8.84677H112.808V12.235H110.95Z" fill="white"/>
<path d="M119.146 9.50256V20.651H115.321V12.4536H113.681V9.50256H119.146ZM115.321 5.13062H119.146V8.19098H115.321V5.13062Z" fill="white"/>
<path d="M129.099 12.5629C129.099 12.3443 129.026 12.1622 128.881 12.0164C128.735 11.8707 128.553 11.7978 128.334 11.7978H127.788C127.176 11.7978 126.644 11.827 126.192 11.8853C125.755 11.9436 125.412 11.9873 125.165 12.0164V17.7H128.225C128.808 17.7 129.099 17.4085 129.099 16.8256V12.5629ZM125.165 9.28396C126.578 8.9925 127.817 8.84677 128.881 8.84677H129.646C130.637 8.84677 131.431 9.14552 132.028 9.74302C132.626 10.3405 132.925 11.1348 132.925 12.1257V17.1535C132.925 18.2464 132.611 19.1063 131.985 19.7329C131.373 20.345 130.52 20.651 129.427 20.651H121.339V5.34921H125.165V9.28396Z" fill="white"/>
<path d="M139.376 11.5792C138.793 11.5792 138.502 11.8707 138.502 12.4536V13.6559H142.218V12.4536C142.218 11.8707 141.926 11.5792 141.343 11.5792H139.376ZM145.606 20.4324C142.793 20.7239 140.243 20.8696 137.955 20.8696C136.964 20.8696 136.17 20.5709 135.572 19.9734C134.975 19.3759 134.676 18.5816 134.676 17.5907V12.3443C134.676 11.2513 134.982 10.3988 135.594 9.78674C136.221 9.16009 137.081 8.84677 138.174 8.84677H142.546C143.639 8.84677 144.491 9.16009 145.103 9.78674C145.73 10.3988 146.043 11.2513 146.043 12.3443V16.3884H138.502V17.2628C138.502 17.4814 138.574 17.6635 138.72 17.8093C138.866 17.955 139.048 18.0279 139.267 18.0279C140.709 18.0279 142.822 17.9186 145.606 17.7V20.4324Z" fill="white"/>
<path d="M147.565 17.3721H151.5V20.651H147.565V17.3721Z" fill="white"/>
</svg>
