<svg width="146" height="22" viewBox="0 0 146 22" fill="none" xmlns="http://www.w3.org/2000/svg">
<g clip-path="url(#clip0_1_178)">
<g clip-path="url(#clip1_1_178)">
<mask id="mask0_1_178" style="mask-type:luminance" maskUnits="userSpaceOnUse" x="0" y="0" width="146" height="22">
<path d="M145.5 0.852295H0.5V21.4266H145.5V0.852295Z" fill="white"/>
</mask>
<g mask="url(#mask0_1_178)">
<path d="M27.2422 18.7358V7.37921H30.8269V9.02459C31.14 8.41093 31.6172 7.93536 32.2585 7.59781C32.8998 7.2603 33.667 7.09155 34.5603 7.09155C35.339 7.09155 35.9803 7.21428 36.4842 7.45975C36.9882 7.70522 37.3967 8.0159 37.7098 8.39177C38.0687 8.82898 38.3052 9.33528 38.4198 9.91059C38.5344 10.4859 38.5915 11.1801 38.5915 11.9932V18.7358H35.0071V12.9137C35.0071 12.1159 34.8618 11.4601 34.5718 10.9462C34.2815 10.4245 33.77 10.1637 33.0372 10.1637C32.2889 10.1637 31.7314 10.4245 31.3652 10.9462C31.0062 11.4601 30.8269 12.1543 30.8269 13.0288V18.7358H27.2422Z" fill="white"/>
<path d="M40.959 13.0523C40.959 12.2392 41.1003 11.4721 41.383 10.7511C41.673 10.03 42.0891 9.39716 42.6313 8.85254C43.1732 8.30792 43.8297 7.8745 44.6009 7.55232C45.3723 7.23014 46.2501 7.06909 47.2352 7.06909C48.2199 7.06909 49.0981 7.23014 49.8692 7.55232C50.6479 7.8745 51.3044 8.30792 51.839 8.85254C52.3809 9.39716 52.7934 10.03 53.0758 10.7511C53.3585 11.4721 53.4995 12.2392 53.4995 13.0523C53.4995 13.8654 53.3585 14.6364 53.0758 15.3651C52.7934 16.0861 52.3809 16.719 51.839 17.2636C51.3044 17.8082 50.6479 18.2416 49.8692 18.5638C49.0981 18.886 48.2199 19.0471 47.2352 19.0471C46.2501 19.0471 45.3723 18.886 44.6009 18.5638C43.8297 18.2416 43.1732 17.8082 42.6313 17.2636C42.0891 16.719 41.673 16.0861 41.383 15.3651C41.1003 14.644 40.959 13.8731 40.959 13.0523ZM44.5437 13.0523C44.5437 13.4589 44.6048 13.8386 44.727 14.1914C44.8568 14.5366 45.0361 14.8434 45.2653 15.1119C45.5021 15.3727 45.7844 15.5798 46.1127 15.7333C46.4409 15.879 46.8075 15.9519 47.212 15.9519C47.6169 15.9519 47.9871 15.879 48.323 15.7333C48.6668 15.5798 48.9531 15.3727 49.1819 15.1119C49.4187 14.8434 49.602 14.5366 49.7318 14.1914C49.8692 13.8462 49.9378 13.4665 49.9378 13.0523C49.9378 12.6611 49.8692 12.2891 49.7318 11.9362C49.602 11.5833 49.4187 11.2765 49.1819 11.0157C48.9531 10.7549 48.6704 10.5478 48.3345 10.3944C47.9987 10.241 47.6245 10.1643 47.212 10.1643C46.8075 10.1643 46.4409 10.241 46.1127 10.3944C45.7844 10.5478 45.5021 10.7549 45.2653 11.0157C45.0361 11.2765 44.8568 11.5833 44.727 11.9362C44.6048 12.2891 44.5437 12.6611 44.5437 13.0523Z" fill="white"/>
<path d="M55.3008 13.0524C55.3008 12.201 55.4345 11.4109 55.7017 10.6821C55.9764 9.95342 56.3546 9.32822 56.8354 8.80663C57.3242 8.27734 57.8928 7.85929 58.5417 7.55243C59.191 7.24562 59.8934 7.09219 60.649 7.09219C61.4967 7.09219 62.2295 7.27244 62.8481 7.63298C63.4742 7.99352 63.9438 8.44993 64.2565 9.00225V2.23657H67.8413V18.7365H64.2565V17.1371C63.9742 17.6588 63.5197 18.1037 62.894 18.4719C62.2678 18.8401 61.5195 19.0241 60.649 19.0241C59.901 19.0241 59.1986 18.8707 58.5417 18.5639C57.8928 18.2571 57.3242 17.839 56.8354 17.3097C56.3546 16.7805 55.9764 16.1514 55.7017 15.4227C55.4345 14.694 55.3008 13.9039 55.3008 13.0524ZM58.8624 13.0524C58.8624 13.4436 58.9275 13.8195 59.0572 14.18C59.1946 14.5329 59.3779 14.8397 59.6071 15.1005C59.8435 15.3537 60.1262 15.5608 60.4545 15.7219C60.7827 15.8753 61.1493 15.952 61.5538 15.952C61.9584 15.952 62.325 15.8753 62.6532 15.7219C62.9894 15.5608 63.2717 15.3537 63.5009 15.1005C63.7374 14.8397 63.9207 14.5329 64.0504 14.18C64.1878 13.8272 64.2565 13.4513 64.2565 13.0524C64.2565 12.6612 64.1878 12.293 64.0504 11.9478C63.9207 11.6027 63.7374 11.2958 63.5009 11.0273C63.2717 10.7588 62.993 10.5479 62.6648 10.3945C62.3365 10.2411 61.9663 10.1644 61.5538 10.1644C61.1493 10.1644 60.7827 10.2411 60.4545 10.3945C60.1262 10.5479 59.8435 10.7588 59.6071 11.0273C59.3779 11.2958 59.1946 11.6027 59.0572 11.9478C58.9275 12.293 58.8624 12.6612 58.8624 13.0524Z" fill="white"/>
<path d="M70.4238 13.0528C70.4238 12.2013 70.5576 11.4112 70.8247 10.6825C71.0995 9.95376 71.4776 9.32856 71.9584 8.80696C72.4472 8.27767 73.0159 7.85962 73.6648 7.55277C74.3141 7.24595 75.0165 7.09253 75.772 7.09253C76.6198 7.09253 77.3526 7.27278 77.9711 7.63331C78.5972 7.99385 79.0668 8.45026 79.3796 9.00258V7.38018H82.9643V18.7368H79.3796V17.1375C79.0972 17.6591 78.6428 18.104 78.017 18.4722C77.3909 18.8404 76.6425 19.0245 75.772 19.0245C75.0241 19.0245 74.3216 18.8711 73.6648 18.5642C73.0159 18.2574 72.4472 17.8393 71.9584 17.31C71.4776 16.7808 71.0995 16.1518 70.8247 15.4231C70.5576 14.6943 70.4238 13.9042 70.4238 13.0528ZM73.9854 13.0528C73.9854 13.444 74.0505 13.8199 74.1803 14.1804C74.3177 14.5332 74.501 14.84 74.7301 15.1009C74.9666 15.354 75.2493 15.5611 75.5775 15.7222C75.9058 15.8756 76.2724 15.9523 76.6769 15.9523C77.0814 15.9523 77.448 15.8756 77.7762 15.7222C78.1125 15.5611 78.3948 15.354 78.624 15.1009C78.8604 14.84 79.0437 14.5332 79.1735 14.1804C79.3109 13.8275 79.3796 13.4517 79.3796 13.0528C79.3796 12.6615 79.3109 12.2934 79.1735 11.9482C79.0437 11.603 78.8604 11.2961 78.624 11.0277C78.3948 10.7592 78.1161 10.5482 77.7878 10.3948C77.4596 10.2414 77.0894 10.1647 76.6769 10.1647C76.2724 10.1647 75.9058 10.2414 75.5775 10.3948C75.2493 10.5482 74.9666 10.7592 74.7301 11.0277C74.501 11.2961 74.3177 11.603 74.1803 11.9482C74.0505 12.2934 73.9854 12.6615 73.9854 13.0528Z" fill="white"/>
<path d="M86.2461 18.736V2.23608H89.8305V18.736H86.2461Z" fill="white"/>
<path d="M91.5527 7.37964H95.3092L98.0466 14.5135L100.818 7.37964H104.574L99.455 18.7363H96.5918L91.5527 7.37964Z" fill="white"/>
<path d="M106.184 3.6061C106.184 2.96177 106.401 2.42098 106.836 1.98373C107.279 1.5465 107.829 1.32788 108.486 1.32788C108.814 1.32788 109.115 1.38541 109.39 1.50047C109.673 1.61554 109.921 1.77662 110.135 1.98373C110.349 2.18318 110.513 2.42482 110.627 2.70864C110.742 2.99243 110.799 3.29162 110.799 3.6061C110.799 3.92061 110.742 4.21593 110.627 4.49209C110.513 4.76825 110.349 5.01372 110.135 5.22849C109.921 5.4356 109.673 5.60053 109.39 5.72326C109.115 5.83833 108.814 5.89585 108.486 5.89585C108.157 5.89585 107.856 5.83833 107.581 5.72326C107.306 5.60053 107.062 5.4356 106.848 5.22849C106.642 5.01372 106.478 4.76825 106.355 4.49209C106.241 4.21593 106.184 3.92061 106.184 3.6061ZM106.699 18.7368V7.38014H110.283V18.7368H106.699Z" fill="white"/>
<path d="M113.275 13.0523C113.275 12.2162 113.401 11.4376 113.653 10.7165C113.913 9.9955 114.294 9.36647 114.798 8.82951C115.31 8.28489 115.932 7.85534 116.665 7.54083C117.406 7.22631 118.253 7.06909 119.208 7.06909C120.116 7.06909 120.933 7.21098 121.658 7.49481C122.384 7.77863 122.999 8.16982 123.502 8.66842C124.014 9.15936 124.407 9.7462 124.682 10.4289C124.957 11.1116 125.094 11.848 125.094 12.6381C125.094 12.8605 125.087 13.0523 125.072 13.2134C125.056 13.3745 125.026 13.6123 124.98 13.9268H116.883C116.883 14.272 116.925 14.598 117.009 14.9048C117.101 15.2116 117.238 15.4801 117.421 15.7103C117.612 15.9404 117.864 16.1207 118.177 16.2511C118.49 16.3815 118.872 16.4466 119.322 16.4466C119.964 16.4466 120.445 16.3239 120.765 16.0785C121.086 15.8253 121.307 15.5185 121.43 15.1579H124.957C124.865 15.6949 124.671 16.1973 124.373 16.6653C124.083 17.1332 123.705 17.5436 123.239 17.8964C122.773 18.2493 122.216 18.5293 121.567 18.7364C120.918 18.9435 120.185 19.0471 119.368 19.0471C118.383 19.0471 117.509 18.8936 116.746 18.5868C115.99 18.28 115.352 17.8543 114.833 17.3096C114.321 16.765 113.932 16.1283 113.665 15.3996C113.405 14.6708 113.275 13.8884 113.275 13.0523ZM116.883 11.8557H121.578C121.578 11.1653 121.361 10.6207 120.926 10.2218C120.498 9.81521 119.933 9.61193 119.231 9.61193C118.559 9.61193 117.997 9.80755 117.547 10.1988C117.104 10.5823 116.883 11.1346 116.883 11.8557Z" fill="white"/>
<path d="M125.928 7.38062H129.638L131.723 14.1463L133.715 7.38062H137.025L139.018 14.1463L141.102 7.38062H144.813L140.587 18.7373H137.678L135.376 11.4998L133.063 18.7373H130.154L125.928 7.38062Z" fill="white"/>
<path d="M10.2329 1.62187V6.30114C10.235 6.34468 10.2253 6.38798 10.2047 6.42645C10.1842 6.4649 10.1535 6.4971 10.116 6.51959C10.0785 6.54207 10.0356 6.55402 9.9919 6.55419C9.94813 6.55433 9.90517 6.54265 9.86754 6.52042L1.53039 0.922388C1.45271 0.877311 1.36427 0.853946 1.27439 0.854757C1.1845 0.855568 1.0965 0.880525 1.01965 0.926996C0.942813 0.973468 0.87998 1.03973 0.837778 1.1188C0.795577 1.19788 0.775571 1.28683 0.779868 1.37628V9.59022C0.778021 9.76841 0.822193 9.94409 0.908144 10.1004C0.994095 10.2567 1.11894 10.3883 1.27068 10.4827L17.3023 21.1174C17.3803 21.164 17.4695 21.1886 17.5605 21.1886C17.6514 21.1886 17.7407 21.164 17.8186 21.1174C17.8966 21.0708 17.9604 21.0039 18.0032 20.924C18.046 20.844 18.0662 20.754 18.0616 20.6635V1.47057C18.0637 1.40303 18.0522 1.33577 18.0279 1.2727C18.0035 1.20963 17.9669 1.15202 17.9199 1.10323C17.873 1.05445 17.8168 1.01546 17.7546 0.988553C17.6924 0.961644 17.6254 0.947351 17.5576 0.946508H10.8778C10.7909 0.948498 10.7052 0.967564 10.6257 1.00261C10.5462 1.03766 10.4745 1.08801 10.4146 1.15075C10.3546 1.2135 10.3077 1.28742 10.2766 1.36827C10.2454 1.44911 10.2305 1.53529 10.2329 1.62187Z" fill="white"/>
<path d="M0.779475 11.7063V20.7469C0.77801 20.7922 0.785589 20.8373 0.801774 20.8797C0.817959 20.922 0.842426 20.9607 0.873756 20.9935C0.905085 21.0264 0.942652 21.0527 0.984275 21.071C1.0259 21.0892 1.07075 21.0991 1.11622 21.0999H8.26265C8.30803 21.0988 8.35275 21.0887 8.39426 21.0704C8.43574 21.052 8.47319 21.0257 8.50444 20.9929C8.53573 20.9601 8.56022 20.9215 8.57649 20.8793C8.59279 20.8371 8.60059 20.7921 8.59942 20.7469V16.4448C8.59911 16.3847 8.58387 16.3256 8.55507 16.2728C8.52626 16.22 8.48478 16.1751 8.43435 16.1422L1.2989 11.4037C1.24613 11.3723 1.18586 11.3555 1.12437 11.3552C1.06289 11.3549 1.00246 11.3711 0.949388 11.402C0.896314 11.4329 0.852548 11.4775 0.822659 11.531C0.792771 11.5845 0.777857 11.6451 0.779475 11.7063Z" fill="white"/>
</g>
</g>
</g>
<defs>
<clipPath id="clip0_1_178">
<rect width="146" height="21" fill="white" transform="translate(0 0.639893)"/>
</clipPath>
<clipPath id="clip1_1_178">
<rect width="146" height="21" fill="white" transform="translate(0 0.639893)"/>
</clipPath>
</defs>
</svg>
