<svg width="90" height="21" viewBox="0 0 90 21" fill="none" xmlns="http://www.w3.org/2000/svg">
<g clip-path="url(#clip0_1_171)">
<g clip-path="url(#clip1_1_171)">
<mask id="mask0_1_171" style="mask-type:luminance" maskUnits="userSpaceOnUse" x="0" y="0" width="90" height="20">
<path d="M90 0.139893H0V19.9084H90V0.139893Z" fill="white"/>
</mask>
<g mask="url(#mask0_1_171)">
<path fill-rule="evenodd" clip-rule="evenodd" d="M6.20312 0.221729C4.45842 0.475648 3.13708 1.0599 2.09634 2.03759C1.42195 2.67112 1.04125 3.28523 0.7554 4.20057C0.604697 4.68305 0.593747 4.78448 0.596514 5.66973C0.599453 6.61873 0.673622 7.0902 0.918377 7.7156C1.16348 8.34193 1.76422 9.07643 2.36749 9.48739C3.15287 10.0224 4.49277 10.5264 6.00527 10.8558C6.13206 10.8834 6.35249 10.9317 6.49513 10.963C6.63776 10.9944 6.91006 11.0502 7.10024 11.087C7.29042 11.1238 7.54976 11.1765 7.67654 11.2041C7.80333 11.2317 8.0497 11.2852 8.22403 11.323C9.79652 11.6639 10.7713 12.0872 11.2108 12.6201C11.5277 13.0044 11.6384 13.3924 11.6135 14.0326C11.5941 14.5315 11.571 14.6288 11.3811 15.0123C11.2651 15.2464 11.0714 15.5337 10.9506 15.6505C10.2711 16.308 9.11603 16.677 7.73763 16.6771C5.88114 16.6771 4.54077 16.0423 3.95738 14.8865C3.86489 14.7033 3.72537 14.3141 3.64733 14.0216C3.5693 13.7291 3.47139 13.4683 3.42984 13.4419C3.38829 13.4155 2.62486 13.3936 1.73327 13.393C0.372909 13.3923 0.100952 13.4059 0.0416509 13.4773C-0.0399533 13.5757 0.00280878 14.184 0.131036 14.7479C0.621871 16.9072 1.99174 18.482 4.10348 19.3147C5.82103 19.9919 8.27901 20.0996 10.3114 19.5867C12.5983 19.0096 14.3272 17.537 14.9399 15.6444C15.4404 14.0983 15.3109 12.264 14.6153 11.0483C14.0749 10.1037 13.2816 9.48134 11.9142 8.92912C10.987 8.5547 10.1445 8.34164 8.02232 7.94503C6.27227 7.61798 5.44303 7.36343 4.86483 6.97586C4.39278 6.65942 4.18214 6.28626 4.14607 5.70235C4.08146 4.65625 4.83019 3.84459 6.19182 3.48475C6.86131 3.30782 8.17424 3.30517 8.83485 3.47938C10.0942 3.81156 10.7585 4.4478 11.0523 5.60323C11.1141 5.84585 11.2081 6.07678 11.2613 6.11637C11.3332 6.16985 11.7621 6.18841 12.9278 6.18841C14.6844 6.18841 14.6786 6.18973 14.6786 5.79122C14.6786 5.47852 14.4827 4.61055 14.3064 4.14254C13.9836 3.28546 13.493 2.56641 12.7943 1.92608C11.842 1.05356 10.5499 0.467984 9.05108 0.229682C8.35975 0.119782 6.93104 0.115805 6.20312 0.221729ZM57.9876 0.208704C55.6765 0.574599 53.6428 1.66974 52.1806 3.33571C50.04 5.77474 49.2374 9.03298 49.979 12.2734C50.4547 14.3517 51.6182 16.2849 53.1467 17.5371C54.4568 18.6104 55.8033 19.2318 57.389 19.4954C58.021 19.6005 58.3572 19.6162 59.9639 19.6162C61.567 19.6162 61.8238 19.6042 61.9024 19.5257C61.9801 19.4479 61.9929 19.2202 61.9929 17.9161C61.9929 16.6121 61.9801 16.3844 61.9024 16.3066C61.8239 16.2282 61.5683 16.2159 59.9862 16.2154C58.2513 16.2147 58.1328 16.2078 57.6029 16.0759C56.9674 15.9177 56.6977 15.8074 56.1163 15.4678C54.6988 14.64 53.6546 13.0777 53.2653 11.2022C53.1578 10.6843 53.143 9.14904 53.2415 8.73935C53.5008 7.66178 53.8403 6.85098 54.3443 6.1053C54.6673 5.62743 55.4217 4.89224 55.9377 4.55246C57.1742 3.7382 58.4825 3.4202 60.0856 3.54428C63.2264 3.78736 65.1779 5.26967 65.7091 7.81582C65.7836 8.17307 65.7964 9.05787 65.7964 13.8635C65.7965 18.9041 65.8059 19.5022 65.887 19.5833C65.965 19.6612 66.1979 19.6739 67.5563 19.6739C69.0581 19.6739 69.1379 19.6685 69.1946 19.5624C69.2346 19.4877 69.2543 17.5968 69.2543 13.8376C69.2543 7.98238 69.2484 7.81623 69.0022 6.75721C68.5971 5.01454 67.6046 3.44071 66.1733 2.2714C65.2234 1.49541 63.9888 0.887935 62.6716 0.548436C62.057 0.390068 61.7827 0.338545 60.8004 0.197005C60.3 0.124852 58.469 0.132517 57.9876 0.208704ZM81.4719 0.200635C80.4476 0.402341 79.7747 0.60791 79.2119 0.891047C78.8373 1.0795 78.1422 1.56082 77.7483 1.90458C77.5546 2.07361 77.3696 2.21193 77.3373 2.21193C77.2416 2.21193 77.2089 1.99028 77.2081 1.33716C77.2074 0.855315 77.1876 0.702134 77.1167 0.631191C77.0386 0.55316 76.8007 0.540655 75.3919 0.540655C73.9831 0.540655 73.7452 0.55316 73.6671 0.631191C73.5855 0.712795 73.5766 1.63349 73.5766 9.90555C73.5766 18.1776 73.5855 19.0983 73.6671 19.1799C73.8003 19.313 76.9802 19.3164 77.113 19.1835C77.189 19.1076 77.2028 18.3612 77.2226 13.2332L77.2454 7.36982L77.3985 6.87997C77.9754 5.03442 79.2619 3.91063 81.216 3.54514C81.6881 3.45679 82.2145 3.46308 82.7686 3.56358C83.3802 3.67452 83.4993 3.71342 84.0278 3.97472C85.0865 4.49829 85.7821 5.33998 86.1511 6.54404L86.2806 6.96641L86.3111 13.0629C86.3378 18.397 86.3525 19.1663 86.4281 19.2141C86.4772 19.2452 87.2269 19.2691 88.1673 19.2696C89.5937 19.2703 89.8324 19.2581 89.9106 19.1799C89.9917 19.0987 90.001 18.4782 89.9999 13.2008C89.9985 6.4531 89.9856 6.2065 89.5691 4.94936C88.729 2.41409 86.777 0.732967 84.1172 0.254003C83.4229 0.129002 81.9833 0.0999554 81.4719 0.200635ZM17.8853 0.857677C17.8084 0.934556 17.8111 0.985673 17.91 1.31872C18.0986 1.95409 18.2318 2.3843 18.4811 3.16282C18.6131 3.57488 18.8207 4.22322 18.9425 4.60358C19.0643 4.98394 19.3239 5.80084 19.5194 6.41893C19.7149 7.03701 19.9222 7.68535 19.9802 7.85968C20.1071 8.24171 20.8346 10.5193 21.2504 11.8362C21.6045 12.9572 21.9948 14.178 22.4575 15.6109C22.6416 16.1815 22.9388 17.1151 23.1178 17.6856C23.541 19.0346 23.663 19.3865 23.7625 19.5442L23.8444 19.6739H25.88C27.7465 19.6739 27.923 19.6655 28.0044 19.573C28.0532 19.5175 28.371 18.6164 28.7107 17.5704C29.0503 16.5244 29.4268 15.3703 29.5473 15.0058C29.6678 14.6413 30.0178 13.5651 30.3249 12.6142C30.632 11.6633 30.9822 10.587 31.103 10.2225C31.2239 9.85801 31.5599 8.82066 31.8498 7.91731C32.4812 5.94982 32.4608 6.00238 32.5878 6.02583C32.692 6.04508 32.7987 6.34153 33.5788 8.78176C33.7764 9.39985 34.0112 10.126 34.1006 10.3954C34.19 10.6648 34.5008 11.6244 34.7912 12.5277C36.8214 18.8427 37.0361 19.4898 37.1335 19.5872C37.2073 19.661 37.5156 19.6739 39.2081 19.6739C40.4342 19.6739 41.2377 19.6516 41.3046 19.6158C41.4139 19.5572 41.4314 19.5066 42.6113 15.8126C42.8493 15.0678 43.1167 14.2379 43.2056 13.9685C43.2945 13.6991 43.4492 13.2193 43.5491 12.9023C43.6492 12.5854 43.9522 11.6388 44.2226 10.7988C44.493 9.95886 44.8644 8.80481 45.0481 8.23428C45.2318 7.66374 45.5305 6.73013 45.7121 6.15959C45.8937 5.58905 46.1016 4.94071 46.1741 4.71884C46.6094 3.38845 47.2963 1.23717 47.3292 1.1018C47.4087 0.773365 47.3961 0.771176 45.4422 0.771176C44.4029 0.771176 43.6155 0.794459 43.5547 0.826962C43.4315 0.892949 43.4437 0.85693 42.6366 3.53978C42.289 4.69538 41.9099 5.95212 41.7941 6.33248C41.6784 6.71284 41.4577 7.43898 41.3037 7.94613C41.1497 8.45327 40.9286 9.17941 40.8123 9.55977C40.6961 9.94013 40.5136 10.5496 40.4067 10.9141C40.3 11.2786 39.9974 12.277 39.7344 13.1328C39.3248 14.4659 39.2404 14.6889 39.1452 14.6889C39.0498 14.6889 38.9287 14.3657 38.2916 12.4125C37.8833 11.1605 37.1886 9.03389 36.7479 7.68679C35.5744 4.09995 34.8759 1.95807 34.7041 1.4198C34.6088 1.12082 34.5066 0.912543 34.4287 0.857909C34.325 0.785295 34.0205 0.771176 32.5599 0.771176C30.9339 0.771176 30.8077 0.778494 30.7075 0.878655C30.6469 0.939282 30.3413 1.77492 30.0068 2.79485C29.6806 3.78967 29.1617 5.36862 28.8539 6.30367C28.5461 7.23871 27.8343 9.40417 27.2722 11.1158C26.0529 14.8286 26.092 14.7177 26.0022 14.7177C25.8881 14.7177 25.8292 14.604 25.6884 14.1126C25.5448 13.6116 25.1192 12.19 24.265 9.35806C23.9638 8.35962 23.6135 7.19261 23.4866 6.76471C23.2319 5.90596 23.1611 5.66927 22.4092 3.16282C22.1239 2.21193 21.8581 1.32195 21.8185 1.18502C21.6969 0.764607 21.7298 0.771176 19.7413 0.771176C18.2449 0.771176 17.9584 0.784544 17.8853 0.857677Z" fill="white"/>
</g>
</g>
</g>
<defs>
<clipPath id="clip0_1_171">
<rect width="90" height="20" fill="white" transform="translate(0 0.139893)"/>
</clipPath>
<clipPath id="clip1_1_171">
<rect width="90" height="20" fill="white" transform="translate(0 0.139893)"/>
</clipPath>
</defs>
</svg>
