<svg width="20" height="16" viewBox="0 0 20 16" fill="none" xmlns="http://www.w3.org/2000/svg">
<g clip-path="url(#clip0_1_320)">
<path d="M19.2704 2.28197C18.5755 2.58682 17.8349 2.78889 17.0629 2.887C17.8571 2.41279 18.4633 1.66758 18.7483 0.769373C18.0078 1.21089 17.1902 1.52275 16.3188 1.69679C15.6157 0.948081 14.6135 0.484375 13.5202 0.484375C11.3991 0.484375 9.69146 2.20604 9.69146 4.31667C9.69146 4.62035 9.71716 4.91236 9.78023 5.19035C6.59503 5.035 3.77658 3.50839 1.88321 1.18285C1.55266 1.75635 1.35877 2.41279 1.35877 3.11944C1.35877 4.44632 2.04206 5.62252 3.06058 6.30348C2.44503 6.2918 1.84116 6.11309 1.32957 5.8316C1.32957 5.84328 1.32957 5.85846 1.32957 5.87364C1.32957 7.73548 2.65761 9.28194 4.39914 9.63819C4.08728 9.72346 3.74738 9.76434 3.39464 9.76434C3.14935 9.76434 2.90173 9.75032 2.66929 9.69893C3.1657 11.2162 4.57434 12.3317 6.24929 12.3679C4.94577 13.3876 3.29068 14.0019 1.49893 14.0019C1.18473 14.0019 0.883382 13.9879 0.582031 13.9494C2.27917 15.0438 4.29051 15.6687 6.45954 15.6687C13.5097 15.6687 17.3642 9.82858 17.3642 4.76636C17.3642 4.59699 17.3584 4.43347 17.3502 4.27111C18.1106 3.73149 18.7495 3.05754 19.2704 2.28197Z" fill="#171618"/>
</g>
<defs>
<clipPath id="clip0_1_320">
<rect width="19" height="16" fill="white" transform="translate(0.5)"/>
</clipPath>
</defs>
</svg>
